<svg id="Capa_1" data-name="Capa 1" xmlns="http://www.w3.org/2000/svg" viewBox="0 0 63.35 46.25"><path d="M46.41,0a1.31,1.31,0,0,1-.11,1.53C45.17,3.41,44.08,5.3,43,7.17a3.15,3.15,0,0,1-3.26.91c-.71-.36-.15-.78,0-1.08C40.79,5.15,41.91,3.33,43,1.5A3.15,3.15,0,0,0,43.7,0Z"/><path d="M54.89,18.31c2.17.49,4.37.11,6.54.22a2.72,2.72,0,0,1,1.92.44v1.69l-10.44.24a3.42,3.42,0,0,1-2.13-.31A8.24,8.24,0,0,1,54.89,18.31Z"/><path d="M10.11,29.56c.27,1.17-.24,1.79-1.33,2.27A66.61,66.61,0,0,0,2.31,35,1.51,1.51,0,0,1,0,34.55v-.34c2.44-1.29,4.89-2.55,7.31-3.88.46-.26,1.34-.24,1.14-1.18Z"/><path d="M47.15,28.85c-1,1-1.89,1.2-2.32-.46-.8-3.06-2.81-3.63-5.7-3.27-1.71.21-2.9.57-3.23,2.37s-1.49,2.33-3.21,2.17-4,.44-5.09-.44-.13-3.15-.18-4.82c-.08-2.26,0-4.51-.06-6.77,0-.7-.12-1.31,1-1.31s1.06.63,1,1.42c-.07,2.88-.06,5.76-.16,8.63,0,1.12.21,1.5,1.45,1.59a3.74,3.74,0,0,0,4.25-2.55c1.25-2.89,2.84-5.62,4.3-8.42.2-.38.27-1,.74-1s.68.66.91,1.07c1.76,3.13,3.49,6.29,5.26,9.43.27.48.4,1.07,1,1.34C47.1,28.14,47.13,28.49,47.15,28.85ZM40,19.06a33.2,33.2,0,0,0-2.11,4.59h4.54Z"/><path d="M10.11,29.56l-1.66-.41C3.86,27.2,3,23,6.55,19.47A12.69,12.69,0,0,1,13,16.24c.76-.18,1,.14,1.1.8s-.17.85-.76,1a9.71,9.71,0,0,0-5.23,2.55C5.32,23.28,6.27,26.79,10,27.81a9.33,9.33,0,0,0,3.86.21c.6-.08.95-.07,1.05.66s-.22,1-.91,1.05A14.77,14.77,0,0,1,10.11,29.56Z"/><path d="M54.89,18.31a8.24,8.24,0,0,0-4.11,2.28c-2.82,3-1.85,6.26,2.13,7.27a10.79,10.79,0,0,0,3.49.2c.41,0,.93-.36,1.11.32s.21,1.25-.69,1.37c-.62,0-1.24.05-1.86,0-2.79-.05-5.36-.64-7.15-3.06a6,6,0,0,1,1.56-7.41,12.42,12.42,0,0,1,5.75-2.95c.52-.12,1.25-.69,1.57.48s-.52,1.06-1.17,1.23C55.31,18.14,55.1,18.23,54.89,18.31Z"/><path d="M20.23,26.74c1.41-2.74,2.69-5.18,3.93-7.63.35-.68.58-1.25,1.58-.69s.34,1.09.06,1.59c-1.83,3.29-3.69,6.57-5.53,9.83-.68,0-.71-.59-.89-.94-1.51-2.89-3-5.8-4.47-8.71-.32-.63-1.05-1.27.2-1.85s1.22.5,1.52,1.09C17.79,21.74,18.92,24.07,20.23,26.74Z"/><path d="M52.19,15.87c-.83-.14-1-1-1.32-1.55s.09-.9.58-1.12C54.7,11.78,58,10.37,61.2,8.93c.84-.37,1.23,0,1.51.73s.62,1.29-.3,1.69q-4.92,2.19-9.85,4.35Z"/><path d="M57.79,3.66c-3.15,2.55-6,4.88-8.89,7.18-.54.44-2.61-.17-3-.81s.24-.68.49-.88c2.46-2,4.91-3.94,7.39-5.88C55.17,2.2,56.25,3.44,57.79,3.66Z"/><path d="M45.56,40.26c-2-2.22-3.92-4.4-5.88-6.55-.57-.63-.27-1.08.26-1.35.7-.36,1.13-1.91,2.13-.92,1.82,1.83,3.44,3.87,5.12,5.84.37.43.15.83-.17,1.2Z"/><path d="M32.85,41c0,1.12,0,2.24,0,3.36a1.31,1.31,0,0,1-1,1.47c-2,.74-1.95.8-2-1.38s-.18-4.25-.32-6.38c-.13-2,1.39-1.3,2.33-1.49,1.24-.24,1,.7,1,1.39C32.86,38.94,32.85,40,32.85,41Z"/><path d="M16.53,34.33c0,.42-.33.56-.58.77-2.62,2.22-5.27,4.4-7.84,6.67-1.18,1-1.68.07-2.29-.58-.87-.93.23-1.13.65-1.46q4-3,8-6C15.15,33.2,16.47,33.6,16.53,34.33Z"/><path d="M32.85,4.91c0,1,0,2,0,3,0,.82-.24,1.06-1.08,1.28-1.64.41-2-.08-2-1.67.06-1.79-.19-3.58-.28-5.37-.1-2,1.56-1.13,2.44-1.4,1.12-.35.87.65.89,1.26C32.87,3,32.85,4,32.85,4.91Z"/><path d="M18.16,45.43c-.38-.07-.91,0-1.1-.24-.35-.42.14-.81.35-1.18,1.31-2.29,2.65-4.56,3.93-6.87.45-.8.87-1.24,1.83-.68s.45,1.12.13,1.69c-1.21,2.14-2.47,4.26-3.67,6.41A1.36,1.36,0,0,1,18.16,45.43Z"/><path d="M23.62,11.66c0,.5-.33.72-.63,1a.72.72,0,0,1-1,0C20.3,11.07,18.66,9.55,17,8c-.19-.17-.39-.34-.18-.69a2.22,2.22,0,0,1,3.42-.24l2.78,3.79Z"/><path d="M47.81,26.73c1.79,2.42,4.36,3,7.15,3.06.62,0,1.24,0,1.86,0,.33.6,1.51.64,1,1.8-.39.95-.68,1.53-1.89.94-2.32-1.15-4.71-2.14-7.07-3.19-.56-.24-1.08-.65-1.75-.45,0-.36,0-.71-.07-1.06C47.32,27.44,47.57,27.09,47.81,26.73Z"/></svg>