<?xml version="1.0" encoding="utf-8"?>
<!-- Generator: Adobe Illustrator 18.1.1, SVG Export Plug-In . SVG Version: 6.00 Build 0)  -->
<svg version="1.1" id="Layer_1" xmlns="http://www.w3.org/2000/svg" xmlns:xlink="http://www.w3.org/1999/xlink" x="0px" y="0px"
	 viewBox="0 0 1000 1000" enable-background="new 0 0 1000 1000" xml:space="preserve">
<g>
	<path fill="#FFFFFF" d="M962.773,315.409l-73.689,27.926l-7.097,19.904l-16.505,10.741c-4.677-61.208-7.695-85.49-9-85.49
		l26.621-0.354l49.026-59.821l-71.296,30.591l-6.417,20.829l-69.964,53.051c1.55,13.106,5.547,52.942,2.855,91.935l15.472-10.414
		c6.689,291.521-126.577,401.185-126.577,401.185c-33.69-15.554-42.392-26.947-42.392-26.947
		c121.546-135.441,115.972-331.248,115.755-338.236l-12.807,8.457c0,0,5.248-61.942,1.822-91.228l-22.406,16.995
		c-0.517-20.013-1.686-36.654-3.045-48.265c13.541,0.897,27.518-1.142,38.993-9.408c12.1-8.783,18.517-34.669,20.53-45.791
		c2.012-11.067-0.354-14.819-7.07-19.17c-6.716-4.323-20.856-17.131-26.593-22.895c0,0,11.584-4.976,38.694,7.75
		c29.258,13.84,51.474,7.097,76.436-29.911l-29.965,4.378l2.638-20.666c0.489,0.218,1.006,0.489,1.55,0.816
		c4.16,2.882,18.327,8.076,25.043,9.408c6.744,1.36,6.553,0.381,10.795,2.91c4.242,2.474,7.858,3.535,10.088,2.474
		c0,0,16.723,9.408,23.439,0c0,0,6.472,3.861,9.735,5.03c5.03,1.849,13.161,4.731,15.798,4.215
		c2.692-0.517,9.082,2.203,10.115,2.692c10.55,5.302,16.995,2.556,18.49,0c1.55-2.529-6.553-10.904-12.807-16.125
		c-6.227-5.221-11.611-6.227-11.611-6.227c2.039-1.36,1.523-3.399-2.529-8.266c-4.024-4.922-17.294-11.448-17.294-11.448
		c0.163-3.888-15.01-13.297-24.037-20.176c-9.164-6.907-5.411-6.553-15.01-16.451c-9.571-9.979-53.513-44.839-75.402-60.447
		C771.29,73.35,711.251,27.587,659.887,11.081c-51.256-16.532-81.629-12.78-103.301,0.68c-21.726,13.46-16.342,31.461-12.427,42.582
		c3.807,11.121,11.284,25.071,15.662,33.636c4.351,8.593,0.816,8.429-1.196,9.816c-2.012,1.278,0.136,4.677-1.822,4.323
		c-2.012-0.326-3.263,2.203-5.792,5.058c-1.251,1.441-4.976,2.692-9.816,3.671c-0.952-4.052,1.577-7.097,1.577-7.097
		c-3.399-1.985-9.218-2.638-9.218-2.638c0.707-1.414,3.372-2.393,3.372-2.393c-3.698-0.952-10.768,0.299-10.768,0.299
		c1.142-1.822,2.148-2.121,2.148-2.121c-6.635-2.257-12.563,3.127-14.955,5.765c-2.937-5.248-6.689-8.946-10.414-12.454
		c-3.997-3.725-6.037-9.109-10.333-13.324c0,0,3.508-5.33,0.979-10.659c-2.474-5.302-9.354-9.571-13.378-10.578
		c0,0,3.562-1.822,3.045-5.846c-0.489-4.024-4.269-5.547-8.321-4.242c-4.079,1.224-8.81,1.224-11.855,4.024
		c0,0-3.317,0.353-5.901,0.027c3.317-11.067,4.976-26.185-14.004-37.878c-21.672-13.46-51.936-17.185-103.274-0.68
		c-51.31,16.532-111.377,62.269-133.212,77.877c-21.862,15.608-65.858,50.468-75.348,60.447c-9.653,9.898-5.955,9.544-14.983,16.451
		c-9.109,6.879-24.255,16.288-24.092,20.176c0,0-13.27,6.553-17.321,11.448c-4.024,4.867-4.541,6.907-2.556,8.266
		c0,0-5.33,1.006-11.584,6.227c-6.227,5.221-14.303,13.596-12.807,16.125c1.55,2.556,7.886,5.302,18.517,0
		c0.979-0.489,7.396-3.209,10.088-2.692c2.692,0.489,10.795-2.366,15.826-4.215c3.263-1.196,9.762-5.03,9.762-5.03
		c6.716,9.408,23.385,0,23.385,0c2.175,1.033,5.901,0,10.061-2.474c4.215-2.529,4.052-1.55,10.741-2.91
		c6.771-1.332,20.938-6.499,25.098-9.408c0.571-0.435,1.169-0.68,1.686-0.87l2.692,20.747l-29.965-4.378
		c24.88,37.008,47.123,43.778,76.381,29.911c27.137-12.726,38.721-7.75,38.721-7.75c-5.71,5.765-19.904,18.572-26.593,22.895
		c-6.716,4.378-9.082,8.103-7.043,19.17c1.985,11.121,8.348,37.008,20.53,45.791c11.475,8.266,25.451,10.278,38.993,9.408
		c-1.36,11.584-2.502,28.252-3.073,48.265l-22.623-17.158c-3.426,29.258,1.795,91.391,1.795,91.391l-12.78-8.457
		c-0.272,7.015-5.792,202.795,115.809,338.236c0,0-8.783,11.393-42.419,26.947c0,0-133.32-109.691-126.522-401.184l15.472,10.414
		c-2.746-39.102,1.278-79.073,2.801-92.071l-69.746-52.915l-6.444-20.829l-71.296-30.591l49.081,59.821l26.593,0.353
		c-1.36,0-4.378,24.282-9.082,85.49l-16.451-10.741l-7.097-19.904l-73.662-27.926l52.126,58.19l25.914-1.632
		c0,0-26.539,258.075,61.072,396.943c72.982,115.537,179.138,116.462,275.777,51.555c-3.426,11.284-15.091,44.866-47.748,106.074
		c0,0,18.844,0,39.02,3.426c0,0-3.997,16.804-6.118,21.862c-2.067,5.194-1.713,13.705,8.212,14.167
		c9.979,0.299,22.922,1.55,22.922,1.55s-1.767,12.127-2.039,18.572c-0.299,8.701-1.142,12.318,33.5,13.786
		c36.301-1.468,33.935-5.085,33.582-13.786c-0.272-6.444-1.931-18.572-1.931-18.572s12.97-1.224,22.922-1.55
		c9.925-0.462,10.278-8.973,8.185-14.167c-2.039-5.085-6.2-21.862-6.2-21.862c20.231-3.426,39.074-3.426,39.074-3.426
		c-32.711-61.426-44.431-94.899-47.884-106.074c96.72,64.879,202.958,64.091,275.995-51.555
		c87.584-138.867,61.045-396.943,61.045-396.943l25.914,1.632L962.773,315.409z M541.059,215.508
		c2.882-12.998,5.221-23.929,7.913-22.08c2.665,1.849,7.396,2.039,9.082-0.136c1.713-2.257,2.203-2.529,3.562-0.218
		c1.36,2.338,9.408,6.227,14.819-3.018c5.384-9.245,3.861-4.541,5.384-1.006c1.55,3.508,5.737,5.03,10.442,1.332
		c4.704-3.671,8.402-6.934,11.774-8.593c3.317-1.632,3.48-0.816,5.33-4.187c1.876-3.399,4.894-4.922,5.03-7.097
		c0.163-2.203-2.012-4.704,1.224-6.39c3.181-1.686,4.704-2.882,7.586-1.523c2.882,1.36,3.671-1.36,5.194,0.489
		c1.495,1.849,3.48,2.039,5.384,0c1.849-2.012,3.209-5.194,5.384-1.496c2.175,3.671,7.043,4.514,8.049,2.665
		c1.06-1.822,1.876-2.012,3.209,0.87c1.36,2.855,6.227,5.058,11.448,4.215c0,0,4.867,6.716,10.795,5.71
		c5.928-1.033,8.239-4.024,8.375-8.021c0.19-4.052-2.012-17.647,2.012-14.683c4.052,3.018,3.888,1.686,5.03-0.707
		c1.196-2.284,3.045,0.163,5.085-0.354c2.012-0.435,1.659-3.018,5.03,0.354c3.399,3.399,3.698,5.058,6.907,5.901
		c3.181,0.816,4.541,1.686,7.913,5.221c3.399,3.535,7.097,7.396,13.106,5.194c0,0,3.861,5.03,7.94,4.704
		c0,0,8.239,8.946,12.943,7.614c0,0,8.049,3.317,10.768,3.018c2.719-0.326,3.209-2.148,4.922-1.224
		c1.659,1.06,1.006-3.181,3.508-0.326c2.474,2.882,7.07,7.94,9.925,7.097c0,0,6.771,5.71,11.937,6.308
		c5.248,0.707,6.771,2.257,8.429,2.257s0.843-1.686,3.888,0.68c2.991,2.366,7.423,3.508,10.278,2.366
		c2.855-1.224,3.997-1.06,6.58-0.707c0.843,0.109,1.931,0,3.127-0.109c-8.457,10.061-19.496,18.055-40.026,11.72
		c-27.219-8.429-35.376-4.405-41.005,1.332c-5.737,5.683-18.164,22.216-21.59,32.657c-3.29,10.414-1.604,18.49,18.49,42.065
		c0,0-26.24,1.659-60.855-9.463c-34.669-11.067-66.647-15.118-98.923-0.625c-5.601,2.529-10.795,4.84-15.635,7.26
		c-3.589-3.644-12.535-12.862-15.853-17.049c0,0,2.175-10.741,2.012-16.995c-0.19-7.07-0.489-10.387-3.018-13.949
		C541.385,233.182,538.258,228.451,541.059,215.508z M679.682,329.44c-15.282,9.653-41.25,20.992-79.726,20.992
		c-30.02,0-53.159-6.907-69.583-14.602c6.825-4.187,33.282-19.224,66.592-20.095c38.694-1.033,55.525,4.323,74.043,10.795
		C673.537,327.428,676.5,328.38,679.682,329.44z M520.285,274.486c0.217,0.109,0.408,0.163,0.625,0.245
		c6.825,2.692,13.922,1.686,13.922,1.686c2.203,1.36,11.774,10.36,15.227,13.759c-9.762,5.302-18.382,10.849-26.811,18.001
		c-2.039-8.348-5.03-21.971-4.16-26.539C519.578,279.081,520.013,276.634,520.285,274.486z M472.346,90.481
		c3.78,2.502,11.121,6.825,13.677,13.079c0.707,1.876,1.278,3.671,1.767,5.384c-5.357-1.332-9.49-1.414-12.644-0.897
		c-5.466-8.837-11.556-14.602-17.239-18.409C463.862,88.795,469.002,88.224,472.346,90.481z M439.961,87.952
		c0.082-0.19,0.19-0.326,0.272-0.625c4.623,6.825,14.602,18.653,30.591,22.107c-1.659,0.816-2.91,1.849-3.807,2.746
		c-8.674-1.142-16.288-2.746-18.327-5.058c-2.529-2.855-3.671-5.384-5.71-5.058c-1.985,0.353,0.163-3.073-1.822-4.323
		C439.118,96.408,435.665,96.544,439.961,87.952z M433.299,195.848c0.707,4.541,1.931,9.544,4.296,14.52
		c-0.625,1.142-1.224,2.284-1.795,3.481c-1.36-10.36-5.601-17.103-6.444-18.354C430.743,195.957,432.075,196.011,433.299,195.848z
		 M263.651,287.511c20.176-23.602,21.835-31.651,18.49-42.065c-3.372-10.442-15.798-26.974-21.536-32.657
		c-5.71-5.71-13.759-9.762-41.032-1.332c-20.53,6.308-31.488-1.604-39.999-11.692c1.142,0.082,2.148,0.163,2.937,0.054
		c2.583-0.354,3.698-0.489,6.635,0.707c2.828,1.142,7.233,0,10.224-2.366c3.045-2.338,2.202-0.68,3.861-0.68
		c1.686,0,3.209-1.55,8.402-2.257c5.221-0.625,11.964-6.308,11.964-6.308c2.882,0.816,7.369-4.242,9.952-7.097
		c2.529-2.855,1.822,1.387,3.535,0.326c1.659-0.924,2.203,0.897,4.867,1.224c2.665,0.299,10.795-3.018,10.795-3.018
		c4.677,1.36,12.97-7.614,12.97-7.614c3.997,0.354,7.886-4.704,7.886-4.704c6.037,2.203,9.789-1.686,13.161-5.194
		c3.317-3.535,4.677-4.405,7.886-5.221c3.209-0.87,3.508-2.529,6.852-5.901c3.399-3.372,3.018-0.761,5.058-0.354
		c2.012,0.517,3.888-1.958,5.058,0.354c1.224,2.393,1.033,3.725,5.03,0.707c3.997-2.991,1.849,10.605,2.012,14.683
		c0.245,3.997,2.556,7.015,8.429,8.022c5.901,1.033,10.795-5.71,10.795-5.71c5.166,0.816,10.088-1.36,11.421-4.215
		c1.36-2.882,2.203-2.692,3.181-0.87c1.006,1.876,5.901,1.006,8.13-2.665c2.148-3.698,3.453-0.544,5.357,1.496
		c1.849,2.039,3.861,1.849,5.384,0c1.495-1.849,2.393,0.843,5.248-0.489c2.828-1.36,4.378-0.163,7.532,1.523
		c3.181,1.686,1.033,4.187,1.196,6.39c0.163,2.175,3.236,3.698,5.058,7.097c1.876,3.372,2.067,2.529,5.384,4.187
		c3.372,1.659,7.07,4.922,11.774,8.593c4.323,3.372,8.157,1.224,9.979-1.659c0.68,2.991,1.686,7.886,3.127,7.886l0,0
		c1.441,0,2.665-3.807,3.725-6.173c1.496,2.067,3.154,1.55,4.786,2.175c-0.789,1.523-12.562,25.179,1.795,46.362h0.027
		c0.68,0,1.224-0.87,1.74-2.284c1.495,13.759,0.68,16.859,0.68,16.859s-6.472,8.239-11.121,22.787
		c-31.869-13.841-63.492-9.49-97.672,1.441C289.891,288.925,263.651,287.511,263.651,287.511z M411.138,316.252
		c-3.997,11.991-9.272,24.282-16.451,34.071c-35.567-1.006-59.903-11.611-74.451-20.883c3.209-1.06,6.118-2.012,8.674-2.91
		c18.517-6.472,35.376-11.801,74.043-10.795C405.754,315.817,408.446,316.062,411.138,316.252z M296.553,334.144
		c3.1-0.544,6.172-0.68,9.735-1.55c9.952,9.979,37.905,32.249,90.575,32.249c68.196,0,103.029-32.766,103.029-32.766
		s34.778,32.875,102.974,32.875c52.724,0,80.623-22.025,90.548-31.977c3.644,0.87,6.662,0.625,9.762,1.142
		c8.266,68.523-5.466,165.814-5.466,165.814H499.864H301.991C301.991,499.959,288.313,402.667,296.553,334.144z M301.991,511.787
		h197.873h197.819c0,0-6.064,75.701-38.34,139.194H499.864H340.331C308.027,587.461,301.991,511.787,301.991,511.787z
		 M499.864,835.829c-118.582-85.844-153.469-173.673-153.469-173.673h153.469h153.415
		C653.279,662.156,618.528,749.985,499.864,835.829z"/>
	<path fill="#FFFFFF" d="M574.015,490.741c6.879-0.163,13.215-2.61,18.545-6.689c2.855,0.952,5.765,1.441,8.81,1.332
		c10.659-0.109,19.931-7.07,25.016-17.267c4.84,0.653,9.735,0,14.194-2.366c9.707-5.194,14.14-16.913,12.046-28.769
		c0.571-0.353,1.006-0.789,1.523-1.169c8.81-7.369,8.62-21.944-0.272-32.766c-0.272-0.354-0.517-0.625-0.87-0.897
		c3.018-2.257,5.03-5.493,5.03-9.299c0-6.716-8.103-12.1-15.554-12.1c-7.369,0-15.499,5.384-15.499,12.1v0.054
		c0,0.381-4.65,1.659-7.315,3.97c-3.78,3.1-4.786,7.668-5.302,12.617c-1.36,0.489-2.203,0.924-3.508,1.659
		c-1.822,0.897-3.127,2.203-4.541,3.562c-2.175-0.544-4.16-0.843-6.444-0.761c-3.236,0.027-6.281,0.761-9.218,1.958
		c-5.33-3.644-11.502-5.737-18.191-5.547c-19.224,0.299-34.425,18.653-34.017,40.815
		C538.884,473.447,554.845,491.094,574.015,490.741z"/>
	<path fill="#FFFFFF" d="M347.238,435.787c0.462,0.381,0.952,0.816,1.523,1.169c-2.094,11.856,2.311,23.575,11.991,28.769
		c4.405,2.366,9.354,3.018,14.221,2.366c5.085,10.197,14.33,17.158,24.989,17.267c3.045,0.109,5.982-0.354,8.81-1.332
		c5.302,4.079,11.638,6.526,18.517,6.689c19.224,0.353,35.132-17.294,35.594-39.537c0.381-22.188-14.847-40.515-34.071-40.815
		c-6.635-0.19-12.862,1.903-18.246,5.52c-2.855-1.169-5.982-1.876-9.245-1.931c-2.257-0.082-4.459,0.218-6.499,0.707
		c-1.468-1.305-3.045-2.61-4.894-3.508c-1.278-0.734-2.665-1.224-4.024-1.659c-0.462-4.949-1.088-9.517-4.894-12.617
		c-2.665-2.339-7.94-3.589-7.94-3.97v-0.054c0-6.716-7.478-12.1-14.874-12.1c-7.45,0-14.194,5.384-14.194,12.1
		c0,3.807,1.577,7.043,4.568,9.299c-0.245,0.245-0.653,0.544-0.952,0.897C338.645,413.789,338.4,428.39,347.238,435.787z"/>
	<path fill="#FFFFFF" d="M501.142,642.497l16.424-24.88l-3.127-11.774l12.916,1.767c0.87,5.384,4.351,11.556,9.517,12.318
		c5.221,0.924,13.841,0,13.841,0l4.894-5.71c-6.037-5.765-13.514-10.632-13.514-10.632c-1.74-34.343-7.75-57.673-12.182-70.046
		c-4.296-12.372-10.034-12.726-21.019-11.284c-10.931,1.441-40.624,19.36-40.624,19.36l-2.039,17.239l10.142,1.115
		c0,0-5.792,19.333-7.831,26.294c-2.012,6.961-0.272,6.635,3.453,9.272c3.725,2.556,17.892,5.982,17.892,5.982l-4.052,17.892
		L501.142,642.497z"/>
	<path fill="#FFFFFF" d="M462.53,424.121c5.901,34.071,27.844,37.171,36.518,36.981c-0.136,12.019-2.203,21.536-2.203,21.536
		l10.795,7.396c1.169-14.303,0.924-25.642,0.027-34.669c25.941-3.752,31.243-42.337,31.243-42.337
		c-25.261,11.393-30.59,29.666-31.705,37.959c-1.795-13.759-5.085-21.264-6.825-24.364c16.424-1.822,29.149-15.717,29.149-32.63
		c0-9.463-3.997-18.001-10.496-23.983l5.384-10.088l-11.448,2.284l-4.704-8.756l-8.402,6.771l-5.03-6.771l-5.384,7.777l-10.115-5.71
		l2.828,9.164c-10.822,5.33-18.273,16.451-18.273,29.313c0,16.261,11.855,29.693,27.355,32.385
		c5.112,8.021,7.124,18.218,7.695,27.735C484.773,431.49,462.53,424.121,462.53,424.121z M498.124,426.079
		c-7.913,0-14.357-14.14-14.357-31.624c0-17.348,6.444-31.488,14.357-31.488c7.913,0,14.33,14.14,14.33,31.488
		C512.454,411.939,506.036,426.079,498.124,426.079z"/>
	<path fill="#FFFFFF" d="M526.756,704.466c-2.91-7.043-2.91-14.004,0-21.101h-39.482c-2.937,7.097-2.937,14.058,0,21.101H526.756z"
		/>
	<path fill="#FFFFFF" d="M487.301,753.874c-2.937,7.043-2.937,21.182,0,28.279h39.482c-2.909-7.097-2.909-21.209,0-28.279H487.301z"
		/>
	<polygon fill="#FFFFFF" points="536.165,725.703 544.975,711.563 484.637,711.563 478.002,704.466 475.256,704.466 
		452.823,704.466 455.95,711.563 462.013,711.563 468.458,725.703 	"/>
	<polygon fill="#FFFFFF" points="535.675,789.223 533.445,789.223 523.439,789.223 514.928,789.223 504.949,789.223 
		498.532,789.223 487.872,789.223 484.582,789.223 480.939,782.153 467.669,782.153 471.721,790.202 482.543,796.156 
		534.588,796.156 545.083,790.093 546.552,782.153 538.041,782.153 	"/>
</g>
</svg>
