<?xml version="1.0" encoding="utf-8"?>
<!-- Generator: Adobe Illustrator 18.1.1, SVG Export Plug-In . SVG Version: 6.00 Build 0)  -->
<svg version="1.1" id="Layer_1" xmlns="http://www.w3.org/2000/svg" xmlns:xlink="http://www.w3.org/1999/xlink" x="0px" y="0px"
	 viewBox="-285 385 24 24" enable-background="new -285 385 24 24" xml:space="preserve">
<path d="M-270.8,390.4h-7.2v18.5h7.3c6.1,0,9.8-4.5,9.8-9.2c0-2.2-0.7-4.5-2.4-6.3C-264.9,391.6-267.4,390.4-270.8,390.4
	L-270.8,390.4z M-271,405.9h-3.7v-12.5h3.6c2.4,0,4.1,0.7,5.3,1.9c1.1,1.1,1.7,2.7,1.7,4.4c0,1-0.3,2.6-1.3,3.9
	C-266.6,404.9-268.2,405.9-271,405.9z M-264,400.6c-0.3,2.3-2,5.7-7.1,5.7h-4.1h4.1C-266,406.3-264.3,402.9-264,400.6z
	 M-261.6,397.4c-0.9-3.5-3.8-6.6-9.2-6.6h-6.9h6.9C-265.4,390.7-262.4,393.9-261.6,397.4z M-284.7,390.5v18.5h3.2v-18.5H-284.7z
	 M-281.8,408.6h-2.6H-281.8L-281.8,408.6z M-283,389.1c1.1,0,2-0.9,2-2c0-1.1-0.9-2-2-2c-1.1,0-2,0.9-2,2
	C-285.1,388.2-284.2,389.1-283,389.1z"/>
</svg>
