<?xml version="1.0" encoding="utf-8"?>
<!-- Generator: Adobe Illustrator 18.1.1, SVG Export Plug-In . SVG Version: 6.00 Build 0)  -->
<svg version="1.1" id="Layer_1" xmlns:xodm="http://www.corel.com/coreldraw/odm/2003"
	 xmlns="http://www.w3.org/2000/svg" xmlns:xlink="http://www.w3.org/1999/xlink" x="0px" y="0px" width="32px" height="32px"
	 viewBox="-83 59 32 32" enable-background="new -83 59 32 32" xml:space="preserve">
<path fill="#04D4AC" d="M-63.4,90.4c-2.8-0.5-4.4-2.1-8.6-8.3c-1.4-2.1-1.4-2.1-2.7-2.2c-2-0.1-1.8-0.5-1.8,3.9c0.1,5,0,4.9,2.9,5.3
	c0.8,0.1,0.8,0.2,0.8,0.6c0,0.5,0,0.5-5,0.5c-4.7,0-5,0-5.1-0.3c-0.2-0.6,0.1-0.8,1.1-1c1.2-0.2,1.8-0.7,1.9-1.5
	c0.1-0.3,0.1-4.5,0.1-9.2c-0.1-10,0.1-9.4-1.8-9.8c-1.2-0.3-1.5-0.5-1.4-1c0.1-0.3,0.4-0.3,5.6-0.4c7.8-0.2,9.3,0.1,11.4,1.9
	c2.2,1.9,2.5,4.9,0.8,7.4c-0.8,1.1-2.3,2.3-3.5,2.8c-0.6,0.2-1,0.4-1,0.5c0,0.2,1.8,2.8,2.9,4.1c2.9,3.6,4.5,4.9,6.1,5.4
	c1,0.3,1.3,0.6,1,1.1C-60,90.7-61.6,90.8-63.4,90.4z M-70.8,77.7c3.8-1.6,4.1-6.9,0.5-8.4c-0.9-0.4-1.2-0.4-3.6-0.4
	c-2.6,0-2.6,0-2.6,4.4c0,2.4,0,4.6,0,4.7C-76.2,78.3-71.9,78.1-70.8,77.7z M-57.3,72.2c-3-0.6-4-2.4-3.8-7.1
	c0.1-2.6,0.3-3.3,1.3-4.4c1.8-1.9,6.2-1.7,7.8,0.3c0.7,0.9,0.6,1.1-0.3,1.4c-0.8,0.3-0.8,0.3-1.4-0.4c-1.6-1.6-4.5-1-5,1
	c-0.3,0.9-0.2,4.7,0,5.6c0.7,2.4,4.7,2.4,5.4,0c0.4-1.6,0.3-1.7-1.5-1.8c-0.9,0-0.9,0-0.9-0.8c0-0.7,0-0.7,2.2-0.8
	c2.8-0.1,2.8-0.1,2.6,1.9c-0.2,2.6-0.9,3.8-2.5,4.5C-54.7,72.2-56.2,72.4-57.3,72.2z"/>
</svg>
