<?xml version="1.0" encoding="utf-8"?>
<!-- Generator: Adobe Illustrator 18.1.1, SVG Export Plug-In . SVG Version: 6.00 Build 0)  -->
<svg version="1.1"
	 id="svg916" xmlns:inkscape="http://www.inkscape.org/namespaces/inkscape" xmlns:sodipodi="http://sodipodi.sourceforge.net/DTD/sodipodi-0.dtd" xmlns:svg="http://www.w3.org/2000/svg" xmlns:dc="http://purl.org/dc/elements/1.1/" xmlns:cc="http://creativecommons.org/ns#" xmlns:rdf="http://www.w3.org/1999/02/22-rdf-syntax-ns#" sodipodi:docname="scopus.svg" inkscape:version="1.0 (4035a4f, 2020-05-01)"
	 xmlns="http://www.w3.org/2000/svg" xmlns:xlink="http://www.w3.org/1999/xlink" x="0px" y="0px" width="256px" height="256px"
	 viewBox="28 -54 256 256" enable-background="new 28 -54 256 256" xml:space="preserve">
<g id="text874" transform="matrix(8.0000004,0,0,8.0000004,-922.07286,-445.2938)">
	<path id="path2345" d="M130.8,69.7c0-3-2.6-4.3-5.1-5.8c-2-1.2-4.1-2-4.1-4.2c0-1.6,1.2-3.4,3.5-3.4c2,0,3.4,0.3,5.2,1.4l0.2-2.5
		c-1.7-0.7-2.8-1-5.5-1c-3.8,0-6.2,2.5-6.2,5.7c0,3.2,2.8,4.6,5.4,6.1c1.9,1.2,3.9,1.9,3.9,4c0,2-1.8,3.4-3.9,3.4
		c-2.1,0-3.5-0.5-5-1.4l-0.4,2.5c1.6,0.7,3.3,1.1,5.5,1.1C127.5,75.6,130.8,73.6,130.8,69.7z"/>
	<path id="path2347" d="M150.8,74.3l-0.2-2.4c-1.9,1-3.9,1.4-6,1.4c-4.4,0-7.9-3.7-7.9-8.6c0-5.2,3.5-8.4,7.5-8.4
		c2.6,0,4.5,0.4,6.4,1.4l0.2-2.3c-1.7-0.8-3.1-1.2-6.3-1.2c-6,0-10.6,4.7-10.6,10.7c0,6.8,5.5,10.6,10.5,10.6
		C147,75.5,149.1,75.2,150.8,74.3z"/>
</g>
</svg>
