<?xml version="1.0" encoding="utf-8"?>
<!-- Generator: Adobe Illustrator 18.1.1, SVG Export Plug-In . SVG Version: 6.00 Build 0)  -->
<svg version="1.1" id="Layer_1" xmlns="http://www.w3.org/2000/svg" xmlns:xlink="http://www.w3.org/1999/xlink" x="0px" y="0px"
	 viewBox="0 0 1000 1000" enable-background="new 0 0 1000 1000" xml:space="preserve">
<g>
	<path id="Sigma" d="M432.603,500.123C350.419,369.783,268.968,240.205,186.618,110c210.039,0,417.945,0,626.764,0
		c0,76.157,0,153.543,0,232.157c-34.394,0-70.016,0-105.638,0c0-41.764,0-83.528,0-126.52c-109.323,0-217.069,0-327.036,0
		c59.904,94.583,118.99,189.038,178.566,283.806c-59.309,94.342-118.431,187.879-178.496,283.69c109.545,0,217.643,0,325.737,0
		c0-41.764,0-83.528,0-125.291c35.622,0,71.244,0,106.866,0c0,76.157,0,153.543,0,232.157c-207.591,0-416.068,0-626.59,0
		C268.925,758.567,350.513,630.325,432.603,500.123z"/>
</g>
</svg>
